<?xml version="1.0" encoding="UTF-8"?>
<svg version="1.1" xmlns="http://www.w3.org/2000/svg" width="235" height="169">
<path d="M0,0 L17,4 L90,24 L115,31 L113,33 L88,41 L80,41 L14,29 L8,24 L6,23 L-3,24 L-6,27 L-6,32 L-3,35 L5,36 L11,33 L22,34 L70,43 L74,45 L43,55 L4,67 L-5,65 L-60,48 L-108,33 L-110,31 L-39,11 Z " fill="#000000" transform="translate(114,20)"/>
<path d="M0,0 L8,0 L10,4 L8,5 L-1,5 L-2,1 Z " fill="#000000" transform="translate(113,47)"/>
<path d="M0,0 L4,0 L4,34 L0,34 Z " fill="#000000" transform="translate(191,64)"/>
<path d="M0,0 L8,1 L59,16 L66,16 L120,0 L124,0 L126,9 L129,28 L129,32 L121,34 L97,39 L76,46 L64,52 L59,51 L45,44 L24,38 L-3,33 L-5,31 Z " fill="#000000" transform="translate(54,74)"/>
<path d="M0,0 L7,1 L9,4 L8,10 L5,12 L0,12 L-3,9 L-3,3 Z " fill="#000000" transform="translate(190,102)"/>
<path d="M0,0 L15,2 L42,8 L57,14 L65,19 L69,18 L81,12 L99,6 L122,1 L133,0 L134,4 L134,11 L128,13 L106,18 L88,24 L72,32 L67,35 L62,33 L52,27 L34,20 L10,14 L0,12 L-1,11 L-1,1 Z " fill="#000000" transform="translate(50,111)"/>
<path d="M0,0 L5,0 L7,11 L11,43 L11,46 L-1,46 L-5,45 L-4,32 Z " fill="#000000" transform="translate(190,117)"/>
</svg>
